<svg xmlns="http://www.w3.org/2000/svg" width="512" height="512" viewBox="0 0 512 512">
  <rect width="512" height="512" rx="112" fill="#15171f"/>
  <rect width="512" height="512" rx="112" fill="url(#g)" opacity="0.25"/>
  <defs><radialGradient id="g" cx="50%" cy="22%" r="80%"><stop offset="0%" stop-color="#f0a830"/><stop offset="100%" stop-color="#15171f"/></radialGradient></defs>
  <g transform="translate(150 120)">
    <rect x="0" y="60" width="150" height="240" rx="22" fill="#f0a830"/>
    <rect x="0" y="60" width="150" height="60" rx="22" fill="#ffce6b"/>
    <path d="M150 110 h44 a40 40 0 0 1 40 40 v70 a40 40 0 0 1 -40 40 h-44 z" fill="none" stroke="#f0a830" stroke-width="22"/>
    <g fill="#fff">
      <circle cx="35" cy="55" r="30"/><circle cx="80" cy="40" r="34"/><circle cx="125" cy="55" r="30"/><circle cx="60" cy="70" r="26"/><circle cx="105" cy="70" r="26"/>
    </g>
    <rect x="22" y="150" width="16" height="120" rx="8" fill="#ffce6b" opacity="0.8"/>
  </g>
</svg>
